<svg width="36" height="36" viewBox="0 0 36 36" fill="none" xmlns="http://www.w3.org/2000/svg">
<path fill-rule="evenodd" clip-rule="evenodd" d="M19.8479 7.2658C20.2534 7.18162 20.6505 7.44217 20.7346 7.84774L21.3354 10.7425L22.8512 8.12437C23.0588 7.7659 23.5176 7.64354 23.8761 7.85108C24.2345 8.05862 24.3569 8.51746 24.1494 8.87593L22.5888 11.5715L25.2895 10.7804C25.687 10.664 26.1036 10.8918 26.22 11.2893C26.3365 11.6868 26.1086 12.1035 25.7111 12.2199L21.499 13.4537L19.3724 17.1271L23.486 17.132L26.945 14.0475C27.2541 13.7718 27.7282 13.799 28.0039 14.1081C28.2796 14.4173 28.2525 14.8914 27.9433 15.167L25.7367 17.1347L28.762 17.1384C29.1762 17.1389 29.5116 17.475 29.5111 17.8893C29.5106 18.3035 29.1744 18.6389 28.7602 18.6384L25.6455 18.6346L27.681 20.5779C27.9806 20.864 27.9915 21.3387 27.7055 21.6383C27.4195 21.9379 26.9447 21.9489 26.6451 21.6629L23.4706 18.632L19.2261 18.627L21.2786 22.1918L25.6793 23.6451C26.0726 23.775 26.2862 24.1991 26.1563 24.5925C26.0264 24.9858 25.6023 25.1993 25.209 25.0694L22.4016 24.1424L23.9111 26.7641C24.1178 27.1231 23.9943 27.5817 23.6353 27.7883C23.2764 27.995 22.8178 27.8716 22.6112 27.5126L21.057 24.8133L20.3918 27.5477C20.2939 27.9502 19.8882 28.1971 19.4858 28.0992C19.0833 28.0012 18.8364 27.5956 18.9343 27.1931L19.9718 22.9284L17.9982 19.5006L15.8963 23.1312L16.7359 27.3539C16.8167 27.7602 16.5528 28.155 16.1465 28.2358C15.7403 28.3165 15.3455 28.0527 15.2647 27.6464L14.7579 25.0975L13.1494 27.8759C12.9418 28.2344 12.483 28.3568 12.1245 28.1492C11.766 27.9417 11.6437 27.4828 11.8512 27.1244L13.6061 24.0932L10.6594 24.7331C10.2547 24.821 9.85526 24.5641 9.76737 24.1593C9.67947 23.7545 9.93636 23.3551 10.3411 23.2672L14.6225 22.3376L16.7725 18.624L12.2882 18.6186L9.0511 21.4571C8.73966 21.7302 8.26581 21.6991 7.99272 21.3876C7.71964 21.0762 7.75073 20.6023 8.06218 20.3293L10.0162 18.6159L6.80574 18.6121C6.39153 18.6116 6.05614 18.2754 6.05664 17.8612C6.05714 17.447 6.39332 17.1116 6.80754 17.1121L10.31 17.1163L8.28258 14.8843C8.00407 14.5777 8.02684 14.1034 8.33344 13.8249C8.64005 13.5464 9.11437 13.5691 9.39288 13.8757L12.3387 17.1187L16.6298 17.1238L14.3922 13.2376L10.3155 11.8534C9.92328 11.7202 9.71329 11.2943 9.84646 10.902C9.97964 10.5098 10.4056 10.2998 10.7978 10.433L13.2586 11.2685L11.6567 8.48631C11.45 8.12734 11.5735 7.66879 11.9324 7.46212C12.2914 7.25544 12.7499 7.37889 12.9566 7.73786L14.7042 10.7732L15.6234 7.9014C15.7497 7.5069 16.1719 7.28946 16.5664 7.41573C16.9609 7.542 17.1783 7.96417 17.052 8.35867L15.7165 12.5313L18.0018 16.5006L20.2077 12.6904L19.2659 8.15256C19.1818 7.74699 19.4423 7.34997 19.8479 7.2658Z" fill="#7DADED"/>
</svg>
