<svg width="36" height="36" viewBox="0 0 36 36" fill="none" xmlns="http://www.w3.org/2000/svg">
<path fill-rule="evenodd" clip-rule="evenodd" d="M25.4887 16.2931C25.4875 16.317 25.487 16.3409 25.487 16.3649C25.487 17.3527 25.1565 18.5458 24.5443 19.8476C23.9393 21.1341 23.102 22.436 22.1961 23.6136C21.2906 24.7908 20.3429 25.8094 19.5402 26.5345C19.1374 26.8982 18.7922 27.169 18.5243 27.346L18.5145 27.3525C18.2648 27.1782 17.9416 26.9167 17.5623 26.5688C16.7706 25.8426 15.8193 24.8181 14.9043 23.6345C13.9886 22.45 13.1359 21.1404 12.5179 19.8478C11.8921 18.5387 11.5547 17.3456 11.5547 16.3649C11.5547 16.3091 11.5516 16.2534 11.5454 16.198C11.0752 11.9976 14.3528 8.5 18.492 8.5C22.5934 8.5 25.7131 11.6091 25.4887 16.2931ZM10.0547 16.3649C10.0547 21.5369 17.0099 28.8132 18.492 29C20.2135 28.75 26.987 21.5369 26.987 16.3649C27.2504 10.8673 23.4916 7 18.492 7C13.4924 7 9.48123 11.2419 10.0547 16.3649ZM20.5 15.5C20.5 16.6046 19.6046 17.5 18.5 17.5C17.3954 17.5 16.5 16.6046 16.5 15.5C16.5 14.3954 17.3954 13.5 18.5 13.5C19.6046 13.5 20.5 14.3954 20.5 15.5ZM22 15.5C22 17.433 20.433 19 18.5 19C16.567 19 15 17.433 15 15.5C15 13.567 16.567 12 18.5 12C20.433 12 22 13.567 22 15.5Z" fill="#333333"/>
</svg>
