<svg width="36" height="36" viewBox="0 0 36 36" fill="none" xmlns="http://www.w3.org/2000/svg">
<path fill-rule="evenodd" clip-rule="evenodd" d="M23.7203 24.7809C24.0132 25.0738 24.4881 25.0738 24.781 24.7809C25.0739 24.488 25.0739 24.0131 24.781 23.7202L19.061 18.0002L24.7809 12.2803C25.0738 11.9874 25.0738 11.5126 24.7809 11.2197C24.488 10.9268 24.0131 10.9268 23.7202 11.2197L18.0003 16.9396L12.2804 11.2197C11.9875 10.9268 11.5127 10.9268 11.2198 11.2197C10.9269 11.5126 10.9269 11.9874 11.2198 12.2803L16.9397 18.0002L11.2197 23.7202C10.9268 24.0131 10.9268 24.488 11.2197 24.7809C11.5126 25.0738 11.9874 25.0738 12.2803 24.7809L18.0003 19.0609L23.7203 24.7809Z" fill="#333333"/>
</svg>
