<svg width="36" height="36" viewBox="0 0 36 36" fill="none" xmlns="http://www.w3.org/2000/svg">
<path fill-rule="evenodd" clip-rule="evenodd" d="M18 30C24.6274 30 30 24.6274 30 18C30 11.3726 24.6274 6 18 6C11.3726 6 6 11.3726 6 18C6 24.6274 11.3726 30 18 30ZM24.5303 15.0303C24.8232 14.7374 24.8232 14.2626 24.5303 13.9697C24.2374 13.6768 23.7626 13.6768 23.4697 13.9697L16.5 20.9393L13.5303 17.9697C13.2374 17.6768 12.7626 17.6768 12.4697 17.9697C12.1768 18.2626 12.1768 18.7374 12.4697 19.0303L15.9697 22.5303C16.2626 22.8232 16.7374 22.8232 17.0303 22.5303L24.5303 15.0303Z" fill="#5F0080"/>
</svg>
