<svg width="24" height="24" viewBox="0 0 24 24" fill="none" xmlns="http://www.w3.org/2000/svg">
<path fill-rule="evenodd" clip-rule="evenodd" d="M14.5 10.5C14.5 12.7091 12.7091 14.5 10.5 14.5C8.29086 14.5 6.5 12.7091 6.5 10.5C6.5 8.29086 8.29086 6.5 10.5 6.5C12.7091 6.5 14.5 8.29086 14.5 10.5ZM13.8213 14.8843C12.8985 15.5845 11.7478 16 10.5 16C7.46243 16 5 13.5376 5 10.5C5 7.46243 7.46243 5 10.5 5C13.5376 5 16 7.46243 16 10.5C16 11.687 15.624 12.7862 14.9845 13.685L19 17.8038L17.8338 19L13.8213 14.8843Z" fill="#999999"/>
</svg>
