<svg width="36" height="36" viewBox="0 0 36 36" fill="none" xmlns="http://www.w3.org/2000/svg">
<path fill-rule="evenodd" clip-rule="evenodd" d="M22.9404 23.8182C23.1828 24.0606 23.5758 24.0606 23.8182 23.8182C24.0606 23.5758 24.0606 23.1828 23.8182 22.9404L18.8778 18L23.8182 13.0596C24.0606 12.8172 24.0606 12.4242 23.8182 12.1818C23.5758 11.9394 23.1828 11.9394 22.9404 12.1818L18 17.1222L13.0596 12.1818C12.8172 11.9394 12.4242 11.9394 12.1818 12.1818C11.9394 12.4242 11.9394 12.8172 12.1818 13.0596L17.1222 18L12.1818 22.9404C11.9394 23.1828 11.9394 23.5758 12.1818 23.8182C12.4242 24.0606 12.8172 24.0606 13.0596 23.8182L18 18.8778L22.9404 23.8182Z" fill="#D2D2D2"/>
</svg>
