<svg width="36" height="36" viewBox="0 0 36 36" fill="none" xmlns="http://www.w3.org/2000/svg">
<rect width="36" height="36" fill="white"/>
<path fill-rule="evenodd" clip-rule="evenodd" d="M12.1368 8.01532C14.97 7.84601 16.9017 9.10879 18 10.3688C19.0983 9.10879 21.03 7.84601 23.8632 8.01532C26.3226 8.16229 28.0055 9.29648 28.9807 10.8403C29.9302 12.3433 30.16 14.1552 29.901 15.6333C29.7964 16.2304 29.5098 16.8619 29.1613 17.4692C28.8041 18.0915 28.3402 18.7593 27.8168 19.4402C26.7694 20.8026 25.4371 22.2776 24.1215 23.6358C22.8031 24.9968 21.4863 26.256 20.4609 27.1893C19.9487 27.6554 19.5043 28.0447 19.1654 28.3268C19.0244 28.4442 18.8965 28.5474 18.7865 28.6316C18.5968 28.8748 18.3042 29.0134 18 28.999C17.6958 29.0134 17.4032 28.8748 17.2135 28.6316C17.1035 28.5474 16.9756 28.4442 16.8346 28.3268C16.4957 28.0447 16.0513 27.6554 15.5391 27.1893C14.5137 26.256 13.1969 24.9968 11.8785 23.6358C10.5629 22.2776 9.23058 20.8026 8.18322 19.4402C7.65978 18.7593 7.19585 18.0915 6.83874 17.4692C6.49024 16.8619 6.20363 16.2304 6.099 15.6333C5.83998 14.1552 6.0698 12.3433 7.01928 10.8403C7.9945 9.29648 9.6774 8.16229 12.1368 8.01532Z" fill="#FE5A59"/>
</svg>
