<svg width="24" height="24" viewBox="0 0 24 24" fill="none" xmlns="http://www.w3.org/2000/svg">
<mask id="path-1-inside-1_250_4338" fill="white">
<path fill-rule="evenodd" clip-rule="evenodd" d="M18 9.63623H11.967C11.7959 8.70534 10.9803 8 10 8C9.01966 8 8.20406 8.70534 8.033 9.63623H6V10.6362H8.10332C8.3691 11.4289 9.11786 12 10 12C10.8821 12 11.6309 11.4289 11.8967 10.6362H18V9.63623ZM6 14.5149V13.5149H12.0592C12.276 12.6447 13.0627 12 14 12C14.9373 12 15.724 12.6447 15.9408 13.5149H18V14.5149H15.9331C15.7059 15.3699 14.9265 16 14 16C13.0735 16 12.2941 15.3699 12.0669 14.5149H6Z"/>
</mask>
<path d="M11.967 9.63623L10.9835 9.81696L11.134 10.6362H11.967V9.63623ZM18 9.63623H19V8.63623H18V9.63623ZM8.033 9.63623V10.6362H8.86599L9.01653 9.81696L8.033 9.63623ZM6 9.63623V8.63623H5V9.63623H6ZM6 10.6362H5V11.6362H6V10.6362ZM8.10332 10.6362L9.05144 10.3183L8.82274 9.63623H8.10332V10.6362ZM11.8967 10.6362V9.63623H11.1773L10.9486 10.3183L11.8967 10.6362ZM18 10.6362V11.6362H19V10.6362H18ZM6 13.5149V12.5149H5V13.5149H6ZM6 14.5149H5V15.5149H6V14.5149ZM12.0592 13.5149V14.5149H12.8407L13.0296 13.7566L12.0592 13.5149ZM15.9408 13.5149L14.9704 13.7566L15.1593 14.5149H15.9408V13.5149ZM18 13.5149H19V12.5149H18V13.5149ZM18 14.5149V15.5149H19V14.5149H18ZM15.9331 14.5149V13.5149H15.1641L14.9666 14.2581L15.9331 14.5149ZM12.0669 14.5149L13.0334 14.2581L12.8359 13.5149H12.0669V14.5149ZM11.967 10.6362H18V8.63623H11.967V10.6362ZM10 9C10.4891 9 10.8981 9.35213 10.9835 9.81696L12.9505 9.4555C12.6938 8.05856 11.4716 7 10 7V9ZM9.01653 9.81696C9.10195 9.35213 9.5109 9 10 9V7C8.52841 7 7.30617 8.05856 7.04947 9.4555L9.01653 9.81696ZM6 10.6362H8.033V8.63623H6V10.6362ZM7 10.6362V9.63623H5V10.6362H7ZM8.10332 9.63623H6V11.6362H8.10332V9.63623ZM10 11C9.56047 11 9.18472 10.7158 9.05144 10.3183L7.1552 10.9541C7.55349 12.142 8.67524 13 10 13V11ZM10.9486 10.3183C10.8153 10.7158 10.4395 11 10 11V13C11.3248 13 12.4465 12.142 12.8448 10.9541L10.9486 10.3183ZM18 9.63623H11.8967V11.6362H18V9.63623ZM17 9.63623V10.6362H19V9.63623H17ZM5 13.5149V14.5149H7V13.5149H5ZM12.0592 12.5149H6V14.5149H12.0592V12.5149ZM14 11C12.5927 11 11.4141 11.968 11.0889 13.2731L13.0296 13.7566C13.138 13.3215 13.5327 13 14 13V11ZM16.9111 13.2731C16.5859 11.968 15.4073 11 14 11V13C14.4673 13 14.862 13.3215 14.9704 13.7566L16.9111 13.2731ZM18 12.5149H15.9408V14.5149H18V12.5149ZM19 14.5149V13.5149H17V14.5149H19ZM15.9331 15.5149H18V13.5149H15.9331V15.5149ZM14 17C15.3912 17 16.5589 16.0539 16.8996 14.7717L14.9666 14.2581C14.853 14.686 14.4619 15 14 15V17ZM11.1004 14.7717C11.4411 16.0539 12.6088 17 14 17V15C13.5381 15 13.147 14.686 13.0334 14.2581L11.1004 14.7717ZM6 15.5149H12.0669V13.5149H6V15.5149Z" fill="#333333" mask="url(#path-1-inside-1_250_4338)"/>
</svg>
