<svg width="36" height="36" viewBox="0 0 36 36" fill="none" xmlns="http://www.w3.org/2000/svg">
<rect width="36" height="36" fill="white"/>
<path fill-rule="evenodd" clip-rule="evenodd" d="M18.9957 11.2725C19.5599 10.3429 21.0767 8.84098 23.7534 9.00094C25.6454 9.114 26.7586 9.94596 27.3814 10.932C28.0301 11.9587 28.2004 13.2403 28.0187 14.2768C27.9748 14.5271 27.8239 14.9175 27.5181 15.4503C27.221 15.9681 26.814 16.5588 26.3221 17.1986C25.339 18.4775 24.0635 19.8926 22.7733 21.2246C21.4857 22.5538 20.1984 23.7847 19.2006 24.6928C18.7175 25.1325 18.3068 25.4923 18 25.7489C17.6932 25.4923 17.2825 25.1325 16.7994 24.6928C15.8016 23.7847 14.5143 22.5538 13.2267 21.2246C11.9365 19.8926 10.661 18.4775 9.67787 17.1986C9.18605 16.5588 8.77903 15.9681 8.48187 15.4503C8.17611 14.9175 8.02515 14.5271 7.98129 14.2768C7.79964 13.2403 7.96993 11.9587 8.61855 10.932C9.24143 9.94596 10.3546 9.114 12.2466 9.00094C14.9233 8.84098 16.4401 10.3429 17.0043 11.2725C17.0354 11.6156 17.2376 11.9324 17.5611 12.0852C17.7036 12.1525 17.8537 12.1805 18 12.1735C18.1463 12.1805 18.2964 12.1525 18.4389 12.0852C18.7624 11.9324 18.9646 11.6156 18.9957 11.2725ZM18 9.3688C19.0983 8.10879 21.03 6.84601 23.8632 7.01532C26.3226 7.16229 28.0055 8.29648 28.9807 9.84026C29.9302 11.3433 30.16 13.1552 29.901 14.6333C29.7964 15.2304 29.5098 15.8619 29.1613 16.4692C28.8041 17.0915 28.3402 17.7593 27.8168 18.4402C26.7694 19.8026 25.4371 21.2776 24.1215 22.6358C22.8031 23.9968 21.4863 25.256 20.4609 26.1893C19.9487 26.6554 19.5043 27.0447 19.1654 27.3268C19.0244 27.4442 18.8965 27.5474 18.7865 27.6316C18.5968 27.8748 18.3042 28.0134 18 27.999C17.6958 28.0134 17.4032 27.8748 17.2135 27.6316C17.1035 27.5474 16.9756 27.4442 16.8346 27.3268C16.4957 27.0447 16.0513 26.6554 15.5391 26.1893C14.5137 25.256 13.1969 23.9968 11.8785 22.6358C10.5629 21.2776 9.23058 19.8026 8.18322 18.4402C7.65978 17.7593 7.19585 17.0915 6.83874 16.4692C6.49024 15.8619 6.20363 15.2304 6.099 14.6333C5.83998 13.1552 6.0698 11.3433 7.01928 9.84026C7.9945 8.29648 9.6774 7.16229 12.1368 7.01532C14.97 6.84601 16.9017 8.10879 18 9.3688Z" fill="url(#paint0_linear_457_5410)"/>
<defs>
<linearGradient id="paint0_linear_457_5410" x1="10.1453" y1="7" x2="23.2275" y2="18.168" gradientUnits="userSpaceOnUse">
<stop stop-color="#D062D3"/>
<stop offset="1" stop-color="#7C59E8"/>
</linearGradient>
</defs>
</svg>
