<svg width="68" height="68" viewBox="0 0 68 68" fill="none" xmlns="http://www.w3.org/2000/svg">
<path fill-rule="evenodd" clip-rule="evenodd" d="M57 33.5C57 46.4787 46.4787 57 33.5 57C20.5213 57 10 46.4787 10 33.5C10 20.5213 20.5213 10 33.5 10C46.4787 10 57 20.5213 57 33.5ZM59 33.5C59 47.5833 47.5833 59 33.5 59C19.4167 59 8 47.5833 8 33.5C8 19.4167 19.4167 8 33.5 8C47.5833 8 59 19.4167 59 33.5ZM44.2071 27.7071C44.5976 27.3166 44.5976 26.6834 44.2071 26.2929C43.8166 25.9024 43.1834 25.9024 42.7929 26.2929L30.5 38.5858L23.7071 31.7929C23.3166 31.4024 22.6834 31.4024 22.2929 31.7929C21.9024 32.1834 21.9024 32.8166 22.2929 33.2071L29.7929 40.7071C30.1834 41.0976 30.8166 41.0976 31.2071 40.7071L44.2071 27.7071Z" fill="#5F0080"/>
</svg>
