<svg width="36" height="36" viewBox="0 0 36 36" fill="none" xmlns="http://www.w3.org/2000/svg">
<path fill-rule="evenodd" clip-rule="evenodd" d="M7.75 8C7.33579 8 7 8.33579 7 8.75C7 9.16421 7.33579 9.5 7.75 9.5H10.1284L10.9252 11.9851L12.8678 21.0737C12.9417 21.4197 13.2474 21.6669 13.6012 21.6669H25.3036C25.6574 21.6669 25.9631 21.4197 26.037 21.0737L27.9874 11.9485C28.0347 11.7271 27.9795 11.4961 27.8371 11.3201C27.6947 11.144 27.4804 11.0417 27.254 11.0417H12.1979L11.3898 8.52102C11.2903 8.21059 11.0016 8 10.6756 8H7.75ZM14.2078 20.1669L12.578 12.5417H26.3267L24.6969 20.1669H14.2078ZM15.0637 25.5005C15.5272 25.5005 16.0017 25.0927 16.0017 24.4657C16.0017 23.8386 15.5272 23.4309 15.0637 23.4309C14.6001 23.4309 14.1257 23.8386 14.1257 24.4657C14.1257 25.0927 14.6001 25.5005 15.0637 25.5005ZM15.0637 27.0005C16.4102 27.0005 17.5017 25.8656 17.5017 24.4657C17.5017 23.0658 16.4102 21.9309 15.0637 21.9309C13.7172 21.9309 12.6257 23.0658 12.6257 24.4657C12.6257 25.8656 13.7172 27.0005 15.0637 27.0005ZM23.8406 25.5005C24.3042 25.5005 24.7786 25.0927 24.7786 24.4657C24.7786 23.8386 24.3042 23.4309 23.8406 23.4309C23.3771 23.4309 22.9026 23.8386 22.9026 24.4657C22.9026 25.0927 23.3771 25.5005 23.8406 25.5005ZM23.8406 27.0005C25.1871 27.0005 26.2786 25.8656 26.2786 24.4657C26.2786 23.0658 25.1871 21.9309 23.8406 21.9309C22.4941 21.9309 21.4026 23.0658 21.4026 24.4657C21.4026 25.8656 22.4941 27.0005 23.8406 27.0005Z" fill="#333333"/>
</svg>
