<svg width="22" height="22" viewBox="0 0 22 22" fill="none" xmlns="http://www.w3.org/2000/svg">
<path fill-rule="evenodd" clip-rule="evenodd" d="M4.5 4C4.22386 4 4 4.22386 4 4.5C4 4.77614 4.22386 5 4.5 5H6.10773L7.88333 12.2462C7.93814 12.4699 8.13865 12.6272 8.36896 12.6272H16.5C16.7305 12.6272 16.9311 12.4697 16.9858 12.2457L18.4858 6.09668C18.5221 5.94758 18.488 5.79004 18.3932 5.66935C18.2984 5.54866 18.1535 5.47818 18 5.47818H12.5762H7.25448L6.98563 4.381C6.93082 4.15731 6.73031 4 6.5 4H4.5ZM8.76123 11.6272L7.49952 6.47818H12.5762H17.3634L16.1073 11.6272H8.76123ZM15.4903 15.8747C15.8916 15.8747 16.2169 15.5494 16.2169 15.1482C16.2169 14.7469 15.8916 14.4216 15.4903 14.4216C15.089 14.4216 14.7637 14.7469 14.7637 15.1482C14.7637 15.5494 15.089 15.8747 15.4903 15.8747ZM15.4903 16.8747C16.4439 16.8747 17.2169 16.1017 17.2169 15.1482C17.2169 14.1946 16.4439 13.4216 15.4903 13.4216C14.5368 13.4216 13.7637 14.1946 13.7637 15.1482C13.7637 16.1017 14.5368 16.8747 15.4903 16.8747ZM9.77275 16.0155C10.174 16.0155 10.4993 15.6902 10.4993 15.2889C10.4993 14.8876 10.174 14.5623 9.77275 14.5623C9.37148 14.5623 9.04618 14.8876 9.04618 15.2889C9.04618 15.6902 9.37148 16.0155 9.77275 16.0155ZM9.77275 17.0155C10.7263 17.0155 11.4993 16.2424 11.4993 15.2889C11.4993 14.3353 10.7263 13.5623 9.77275 13.5623C8.81919 13.5623 8.04618 14.3353 8.04618 15.2889C8.04618 16.2424 8.81919 17.0155 9.77275 17.0155Z" fill="#333333"/>
</svg>
