<svg width="24" height="24" viewBox="0 0 24 24" fill="none" xmlns="http://www.w3.org/2000/svg">
<path fill-rule="evenodd" clip-rule="evenodd" d="M18.4058 11.9998C18.4058 15.5377 15.5377 18.4058 11.9998 18.4058C8.46182 18.4058 5.59375 15.5377 5.59375 11.9998C5.59375 8.46182 8.46182 5.59375 11.9998 5.59375C15.5377 5.59375 18.4058 8.46182 18.4058 11.9998ZM19.4058 11.9998C19.4058 16.09 16.09 19.4058 11.9998 19.4058C7.90953 19.4058 4.59375 16.09 4.59375 11.9998C4.59375 7.90953 7.90953 4.59375 11.9998 4.59375C16.09 4.59375 19.4058 7.90953 19.4058 11.9998ZM12.6974 11.4445C11.8634 11.9521 11.3678 12.4477 11.3557 14.0675V14.1279H12.3952V14.0675C12.4194 13.0219 12.6914 12.5565 13.4468 12.0972C14.1962 11.6379 14.6435 10.9791 14.6435 10.0302C14.6435 8.69455 13.6584 7.72151 12.1414 7.72151C10.7573 7.72151 9.65134 8.57368 9.5909 10.0423H10.6909C10.7573 9.04509 11.4524 8.63412 12.1414 8.64016C12.9391 8.63412 13.5798 9.15992 13.5798 9.98188C13.5798 10.6588 13.199 11.1423 12.6974 11.4445ZM11.9117 15.107C11.4886 15.107 11.126 15.4575 11.1381 15.8806C11.126 16.3097 11.4886 16.6602 11.9117 16.6663C12.3408 16.6602 12.6914 16.3097 12.6853 15.8806C12.6914 15.4575 12.3408 15.107 11.9117 15.107Z" fill="#D2D2D2"/>
</svg>
