<svg width="30" height="30" viewBox="0 0 30 30" fill="none" xmlns="http://www.w3.org/2000/svg">
<path fill-rule="evenodd" clip-rule="evenodd" d="M21.2407 13.5776C21.2398 13.5975 21.2393 13.6175 21.2393 13.6374C21.2393 14.4606 20.9639 15.4549 20.4538 16.5397C19.9496 17.6118 19.2519 18.6967 18.4969 19.6781C17.7423 20.6591 16.9526 21.5079 16.2837 22.1121C15.948 22.4152 15.6604 22.6408 15.4371 22.7884L15.4289 22.7938C15.2209 22.6486 14.9515 22.4306 14.6354 22.1407C13.9757 21.5356 13.1829 20.6818 12.4204 19.6954C11.6574 18.7084 10.9467 17.6171 10.4318 16.5399C9.91023 15.4489 9.62909 14.4547 9.62909 13.6374C9.62909 13.591 9.6265 13.5445 9.62133 13.4984C9.22949 9.99801 11.9609 7.08337 15.4102 7.08337C18.828 7.08337 21.4278 9.67428 21.2407 13.5776ZM8.37909 13.6374C8.37909 17.9475 14.1751 24.011 15.4102 24.1667C16.8448 23.9584 22.4893 17.9475 22.4893 13.6374C22.7088 9.05614 19.5765 5.83337 15.4102 5.83337C11.2439 5.83337 7.90119 9.3683 8.37909 13.6374ZM17.0835 12.9165C17.0835 13.8369 16.3373 14.5831 15.4169 14.5831C14.4964 14.5831 13.7502 13.8369 13.7502 12.9165C13.7502 11.996 14.4964 11.2498 15.4169 11.2498C16.3373 11.2498 17.0835 11.996 17.0835 12.9165ZM18.3335 12.9165C18.3335 14.5273 17.0277 15.8331 15.4169 15.8331C13.806 15.8331 12.5002 14.5273 12.5002 12.9165C12.5002 11.3056 13.806 9.9998 15.4169 9.9998C17.0277 9.9998 18.3335 11.3056 18.3335 12.9165Z" fill="#999999"/>
</svg>
