<svg width="44" height="44" viewBox="0 0 44 44" fill="none" xmlns="http://www.w3.org/2000/svg">
<path fill-rule="evenodd" clip-rule="evenodd" d="M21.9848 12.2146C22.2693 11.9285 22.7307 11.9285 23.0152 12.2146L27.3866 16.6099L26.3563 17.6459L23.2286 14.5011V26.407H21.7714V14.5011L18.6437 17.6459L17.6134 16.6099L21.9848 12.2146ZM14 20.5465C14 20.1419 14.3262 19.814 14.7286 19.814H18.1286V21.2791H15.4571V31.5349H29.5429V21.2791H27.3571V19.814H30.2714C30.6738 19.814 31 20.1419 31 20.5465V32.2674C31 32.672 30.6738 33 30.2714 33H14.7286C14.3262 33 14 32.672 14 32.2674V20.5465Z" fill="#333333"/>
</svg>
