<svg width="18" height="18" viewBox="0 0 18 18" fill="none" xmlns="http://www.w3.org/2000/svg">
<path fill-rule="evenodd" clip-rule="evenodd" d="M5 5H13C13.5523 5 14 5.44772 14 6V10.4932C14 11.0454 13.5523 11.4932 13 11.4932H10.2338L9.95218 12.0247L9.07209 13.542L8.03015 11.9236L7.82728 11.6085L7.76618 11.4932H5C4.44772 11.4932 4 11.0454 4 10.4932V6C4 5.44772 4.44772 5 5 5ZM13 12.4932H10.8365L9.52683 14.7511C9.43945 14.9017 9.28 14.996 9.10591 15.0001C8.93182 15.0041 8.76817 14.9173 8.67391 14.7709L7.20752 12.4932H5C3.89543 12.4932 3 11.5977 3 10.4932V6C3 4.89543 3.89543 4 5 4H13C14.1046 4 15 4.89543 15 6V10.4932C15 11.5977 14.1046 12.4932 13 12.4932ZM6.46326 8.95184C6.88357 8.95184 7.22429 8.62018 7.22429 8.21105C7.22429 7.80193 6.88357 7.47027 6.46326 7.47027C6.04296 7.47027 5.70224 7.80193 5.70224 8.21105C5.70224 8.62018 6.04296 8.95184 6.46326 8.95184ZM9.76102 8.21105C9.76102 8.62018 9.4203 8.95184 9 8.95184C8.5797 8.95184 8.23898 8.62018 8.23898 8.21105C8.23898 7.80193 8.5797 7.47027 9 7.47027C9.4203 7.47027 9.76102 7.80193 9.76102 8.21105ZM11.5367 8.95184C11.957 8.95184 12.2978 8.62018 12.2978 8.21105C12.2978 7.80193 11.957 7.47027 11.5367 7.47027C11.1164 7.47027 10.7757 7.80193 10.7757 8.21105C10.7757 8.62018 11.1164 8.95184 11.5367 8.95184Z" fill="#999999"/>
</svg>
