<svg width="68" height="68" viewBox="0 0 68 68" fill="none" xmlns="http://www.w3.org/2000/svg">
<path fill-rule="evenodd" clip-rule="evenodd" d="M57 34C57 46.7025 46.7025 57 34 57C21.2975 57 11 46.7025 11 34C11 21.2975 21.2975 11 34 11C46.7025 11 57 21.2975 57 34ZM59 34C59 47.8071 47.8071 59 34 59C20.1929 59 9 47.8071 9 34C9 20.1929 20.1929 9 34 9C47.8071 9 59 20.1929 59 34ZM32 24C32 22.8954 32.8954 22 34 22C35.1046 22 36 22.8954 36 24V36C36 37.1046 35.1046 38 34 38C32.8954 38 32 37.1046 32 36V24ZM36 43C36 44.1046 35.1046 45 34 45C32.8954 45 32 44.1046 32 43C32 41.8954 32.8954 41 34 41C35.1046 41 36 41.8954 36 43Z" fill="#D2D2D2"/>
</svg>
